<svg width="754" height="684" version="1.1" xmlns="http://www.w3.org/2000/svg"><g transform="translate(100,100) scale(0.8)"><path class="link" d="M519.8588377237081,408.79999999999995L519.8588377237081,379.59999999999997L519.8588377237081,379.59999999999997" id="node_8693:node_8540" style="fill: none; stroke-width: 3; stroke: grey; cursor: pointer;"></path><path class="link" d="M519.8588377237081,408.79999999999995L519.8588377237081,437.99999999999994L519.8588377237081,437.99999999999994" id="node_8693:node_6449" style="fill: none; stroke-width: 3; stroke: grey; cursor: pointer;"></path><path class="link" d="M443.88296802734783,452.59999999999997L443.88296802734783,408.79999999999995L519.8588377237081,408.79999999999995" id="node_7164:node_8693" style="fill: none; stroke-width: 3; stroke: grey; cursor: pointer;"></path><path class="link" d="M443.88296802734783,452.59999999999997L443.88296802734783,496.4L496.4645083450635,496.4" id="node_7164:node_8924" style="fill: none; stroke-width: 3; stroke: grey; cursor: pointer;"></path><path class="link" d="M258.2879549567666,503.69999999999993L258.2879549567666,452.59999999999997L443.88296802734783,452.59999999999997" id="node_5756:node_7164" style="fill: none; stroke-width: 3; stroke: grey; cursor: pointer;"></path><path class="link" d="M258.2879549567666,503.69999999999993L258.2879549567666,554.8L574.0000000000001,554.8" id="node_5756:node_8896" style="fill: none; stroke-width: 3; stroke: grey; cursor: pointer;"></path><path class="link" d="M414.4729539513373,292L414.4729539513373,262.8L485.54715463502913,262.8" id="node_2936:node_1701" style="fill: none; stroke-width: 3; stroke: grey; cursor: pointer;"></path><path class="link" d="M414.4729539513373,292L414.4729539513373,321.2L414.4729539513373,321.2" id="node_2936:node_2930" style="fill: none; stroke-width: 3; stroke: grey; cursor: pointer;"></path><path class="link" d="M352.5336818821637,175.2L352.5336818821637,146L364.56505127689525,146" id="node_2767:node_7701" style="fill: none; stroke-width: 3; stroke: grey; cursor: pointer;"></path><path class="link" d="M352.5336818821637,175.2L352.5336818821637,204.39999999999998L371.6947516589584,204.39999999999998" id="node_2767:node_4936" style="fill: none; stroke-width: 3; stroke: grey; cursor: pointer;"></path><path class="link" d="M299.7293384275086,233.6L299.7293384275086,175.2L352.5336818821637,175.2" id="node_6123:node_2767" style="fill: none; stroke-width: 3; stroke: grey; cursor: pointer;"></path><path class="link" d="M299.7293384275086,233.6L299.7293384275086,292L414.4729539513373,292" id="node_6123:node_2936" style="fill: none; stroke-width: 3; stroke: grey; cursor: pointer;"></path><path class="link" d="M251.82666398552186,160.6L251.82666398552186,87.6L365.0106575507742,87.6" id="node_3628:node_1512" style="fill: none; stroke-width: 3; stroke: grey; cursor: pointer;"></path><path class="link" d="M251.82666398552186,160.6L251.82666398552186,233.6L299.7293384275086,233.6" id="node_3628:node_6123" style="fill: none; stroke-width: 3; stroke: grey; cursor: pointer;"></path><path class="link" d="M127.05690729941689,332.15L127.05690729941689,160.6L251.82666398552186,160.6" id="node_6351:node_3628" style="fill: none; stroke-width: 3; stroke: grey; cursor: pointer;"></path><path class="link" d="M127.05690729941689,332.15L127.05690729941689,503.69999999999993L258.2879549567666,503.69999999999993" id="node_6351:node_5756" style="fill: none; stroke-width: 3; stroke: grey; cursor: pointer;"></path><path class="link" d="M20,180.67499999999998L20,29.2L485.54715463502924,29.2" id="node_9389:node_6455" style="fill: none; stroke-width: 3; stroke: grey; cursor: pointer;"></path><path class="link" d="M20,180.67499999999998L20,332.15L127.05690729941689,332.15" id="node_9389:node_6351" style="fill: none; stroke-width: 3; stroke: grey; cursor: pointer;"></path><g class="node" transform="translate(574,554.7999877929688)" id="node_8896" style="cursor: crosshair;"><circle class="node" r="4" style="fill: black;"></circle><rect class="node" y="-4px" x="-4px" width="0px" height="0px" style="stroke-width: 2px; stroke: black;"></rect><text x="13" dy=".3em" dx="-.3em" text-anchor="start" font-size="14px" style="fill-opacity: 1; font-family: sans-serif; font-weight: normal; fill: black;">6_Amanita-vaginata-partial_18S_rRNA_gene__ITS1__5_8S_rRNA_gene__ITS2_and_partial_25S_rRNA_gene__specimen_voucher_KF02-44</text><text class="triangleText" dy=".35em" font-size="14px" style="fill-opacity: 1e-06; font-family: sans-serif;"></text><path d="M0,0L0,0L0,0L0,0"></path></g><g class="node" transform="translate(496.4645080566406,496.3999938964844)" id="node_8924" style="cursor: crosshair;"><circle class="node" r="4" style="fill: black;"></circle><rect class="node" y="-4px" x="-4px" width="0px" height="0px" style="stroke-width: 2px; stroke: black;"></rect><text x="13" dy=".3em" dx="-.3em" text-anchor="start" font-size="14px" style="fill-opacity: 1; font-family: sans-serif; font-weight: normal; fill: black;">9_Amanita-multisquamosa_genes_for_18S_rRNA__ITS1__5_8S_rRNA__ITS2__26S_rRNA__specimen_voucher_15239_NY</text><text class="triangleText" dy=".35em" font-size="14px" style="fill-opacity: 1e-06; font-family: sans-serif;"></text><path d="M0,0L0,0L0,0L0,0"></path></g><g class="node" transform="translate(519.8588256835938,438)" id="node_6449" style="cursor: crosshair;"><circle class="node" r="4" style="fill: black;"></circle><rect class="node" y="-4px" x="-4px" width="0px" height="0px" style="stroke-width: 2px; stroke: black;"></rect><text x="13" dy=".3em" dx="-.3em" text-anchor="start" font-size="14px" style="fill-opacity: 1; font-family: sans-serif; font-weight: normal; fill: black;">10_Amanita-muscaria_genes_for_18S_rRNA__ITS1__5_8S_rRNA__ITS2__26S_rRNA__partial_and_complete_sequence__isolate__LEM950025</text><text class="triangleText" dy=".35em" font-size="14px" style="fill-opacity: 1e-06; font-family: sans-serif;"></text><path d="M0,0L0,0L0,0L0,0"></path></g><g class="node" transform="translate(519.8588256835938,379.6000061035156)" id="node_8540" style="cursor: crosshair;"><circle class="node" r="4" style="fill: black;"></circle><rect class="node" y="-4px" x="-4px" width="0px" height="0px" style="stroke-width: 2px; stroke: black;"></rect><text x="13" dy=".3em" dx="-.3em" text-anchor="start" font-size="14px" style="fill-opacity: 1; font-family: sans-serif; font-weight: normal; fill: black;">3_Amanita-muscaria_18S_rRNA_gene__partial___5_8S_rRNA_gene__28S_rRNA_gene__partial___ITS1_and_ITS2</text><text class="triangleText" dy=".35em" font-size="14px" style="fill-opacity: 1e-06; font-family: sans-serif;"></text><path d="M0,0L0,0L0,0L0,0"></path></g><g class="node" transform="translate(519.8588256835938,408.79998779296875)" id="node_8693" style="cursor: crosshair;"><circle class="node" r="4" style="fill: black;"></circle><rect class="node" y="-4px" x="-4px" width="0px" height="0px" style="stroke-width: 2px; stroke: black;"></rect><text x="-13" dy="-.3em" dx=".3em" text-anchor="end" font-size="14px" style="fill-opacity: 1; font-family: sans-serif; font-weight: normal;"></text><text class="triangleText" dy=".35em" font-size="14px" style="fill-opacity: 1e-06; font-family: sans-serif;" x="0"></text><path d="M0,0L0,0L0,0L0,0"></path></g><g class="node" transform="translate(443.8829650878906,452.6000061035156)" id="node_7164" style="cursor: crosshair;"><circle class="node" r="4" style="fill: black;"></circle><rect class="node" y="-4px" x="-4px" width="0px" height="0px" style="stroke-width: 2px; stroke: black;"></rect><text x="-13" dy="-.3em" dx=".3em" text-anchor="end" font-size="14px" style="fill-opacity: 1; font-family: sans-serif; font-weight: normal;"></text><text class="triangleText" dy=".35em" font-size="14px" style="fill-opacity: 1e-06; font-family: sans-serif;" x="0"></text><path d="M0,0L0,0L0,0L0,0"></path></g><g class="node" transform="translate(258.2879638671875,503.70001220703125)" id="node_5756" style="cursor: crosshair;"><circle class="node" r="4" style="fill: black;"></circle><rect class="node" y="-4px" x="-4px" width="0px" height="0px" style="stroke-width: 2px; stroke: black;"></rect><text x="-13" dy="-.3em" dx=".3em" text-anchor="end" font-size="14px" style="fill-opacity: 1; font-family: sans-serif; font-weight: normal;"></text><text class="triangleText" dy=".35em" font-size="14px" style="fill-opacity: 1e-06; font-family: sans-serif;" x="0"></text><path d="M0,0L0,0L0,0L0,0"></path></g><g class="node" transform="translate(414.47296142578125,321.20001220703125)" id="node_2930" style="cursor: crosshair;"><circle class="node" r="4" style="fill: black;"></circle><rect class="node" y="-4px" x="-4px" width="0px" height="0px" style="stroke-width: 2px; stroke: black;"></rect><text x="13" dy=".3em" dx="-.3em" text-anchor="start" font-size="14px" style="fill-opacity: 1; font-family: sans-serif; font-weight: normal; fill: black;">8_Amanita-citrina-partial_18S_rRNA_gene__ITS1__5_8S_rRNA_gene__ITS2_and_partial_25S_rRNA_gene__specimen_voucher_KF02-48</text><text class="triangleText" dy=".35em" font-size="14px" style="fill-opacity: 1e-06; font-family: sans-serif;"></text><path d="M0,0L0,0L0,0L0,0"></path></g><g class="node" transform="translate(485.5471496582031,262.79998779296875)" id="node_1701" style="cursor: crosshair;"><circle class="node" r="4" style="fill: black;"></circle><rect class="node" y="-4px" x="-4px" width="0px" height="0px" style="stroke-width: 2px; stroke: black;"></rect><text x="13" dy=".3em" dx="-.3em" text-anchor="start" font-size="14px" style="fill-opacity: 1; font-family: sans-serif; font-weight: normal; fill: black;">5_Amanita-citrina-partial_18S-5_8S_rRNA_ITS1__clone_53</text><text class="triangleText" dy=".35em" font-size="14px" style="fill-opacity: 1e-06; font-family: sans-serif;"></text><path d="M0,0L0,0L0,0L0,0"></path></g><g class="node" transform="translate(414.47296142578125,292)" id="node_2936" style="cursor: crosshair;"><circle class="node" r="4" style="fill: black;"></circle><rect class="node" y="-4px" x="-4px" width="0px" height="0px" style="stroke-width: 2px; stroke: black;"></rect><text x="-13" dy="-.3em" dx=".3em" text-anchor="end" font-size="14px" style="fill-opacity: 1; font-family: sans-serif; font-weight: normal;"></text><text class="triangleText" dy=".35em" font-size="14px" style="fill-opacity: 1e-06; font-family: sans-serif;" x="0"></text><path d="M0,0L0,0L0,0L0,0"></path></g><g class="node" transform="translate(371.69476318359375,204.39999389648438)" id="node_4936" style="cursor: crosshair;"><circle class="node" r="4" style="fill: black;"></circle><rect class="node" y="-4px" x="-4px" width="0px" height="0px" style="stroke-width: 2px; stroke: black;"></rect><text x="13" dy=".3em" dx="-.3em" text-anchor="start" font-size="14px" style="fill-opacity: 1; font-family: sans-serif; font-weight: normal; fill: black;">7_Amanita-spissa-partial_18S_rRNA_gene__ITS1__5_8S_rRNA_gene__ITS2_and_partial_25S_rRNA_gene__specimen_voucher_KF02-47</text><text class="triangleText" dy=".35em" font-size="14px" style="fill-opacity: 1e-06; font-family: sans-serif;"></text><path d="M0,0L0,0L0,0L0,0"></path></g><g class="node" transform="translate(364.5650634765625,146)" id="node_7701" style="cursor: crosshair;"><circle class="node" r="4" style="fill: black;"></circle><rect class="node" y="-4px" x="-4px" width="0px" height="0px" style="stroke-width: 2px; stroke: black;"></rect><text x="13" dy=".3em" dx="-.3em" text-anchor="start" font-size="14px" style="fill-opacity: 1; font-family: sans-serif; font-weight: normal; fill: black;">4_Amanita-rubescens_18S_rRNA_gene__ITS1__5_8S_rRNA_gene__ITS2_and_28S_rRNA_gene</text><text class="triangleText" dy=".35em" font-size="14px" style="fill-opacity: 1e-06; font-family: sans-serif;"></text><path d="M0,0L0,0L0,0L0,0"></path></g><g class="node" transform="translate(352.53369140625,175.1999969482422)" id="node_2767" style="cursor: crosshair;"><circle class="node" r="4" style="fill: black;"></circle><rect class="node" y="-4px" x="-4px" width="0px" height="0px" style="stroke-width: 2px; stroke: black;"></rect><text x="-13" dy="-.3em" dx=".3em" text-anchor="end" font-size="14px" style="fill-opacity: 1; font-family: sans-serif; font-weight: normal;"></text><text class="triangleText" dy=".35em" font-size="14px" style="fill-opacity: 1e-06; font-family: sans-serif;" x="0"></text><path d="M0,0L0,0L0,0L0,0"></path></g><g class="node" transform="translate(299.7293395996094,233.60000610351562)" id="node_6123" style="cursor: crosshair;"><circle class="node" r="4" style="fill: black;"></circle><rect class="node" y="-4px" x="-4px" width="0px" height="0px" style="stroke-width: 2px; stroke: black;"></rect><text x="-13" dy="-.3em" dx=".3em" text-anchor="end" font-size="14px" style="fill-opacity: 1; font-family: sans-serif; font-weight: normal;"></text><text class="triangleText" dy=".35em" font-size="14px" style="fill-opacity: 1e-06; font-family: sans-serif;" x="0"></text><path d="M0,0L0,0L0,0L0,0"></path></g><g class="node" transform="translate(365.0106506347656,87.5999984741211)" id="node_1512" style="cursor: crosshair;"><circle class="node" r="4" style="fill: black;"></circle><rect class="node" y="-4px" x="-4px" width="0px" height="0px" style="stroke-width: 2px; stroke: black;"></rect><text x="13" dy=".3em" dx="-.3em" text-anchor="start" font-size="14px" style="fill-opacity: 1; font-family: sans-serif; font-weight: normal; fill: black;">1__Amanita-phalloides_18S_rRNA_gene__partial___5_8S_rRNA_gene__26S_rRNA_gene__partial___internal_transcribed_spacer_1__ITS1__and_internal_transcribed_spacer_2__ITS2___isolate_FVORO-0023</text><text class="triangleText" dy=".35em" font-size="14px" style="fill-opacity: 1e-06; font-family: sans-serif;"></text><path d="M0,0L0,0L0,0L0,0"></path></g><g class="node" transform="translate(251.82666015625,160.60000610351562)" id="node_3628" style="cursor: crosshair;"><circle class="node" r="4" style="fill: black;"></circle><rect class="node" y="-4px" x="-4px" width="0px" height="0px" style="stroke-width: 2px; stroke: black;"></rect><text x="-13" dy="-.3em" dx=".3em" text-anchor="end" font-size="14px" style="fill-opacity: 1; font-family: sans-serif; font-weight: normal;"></text><text class="triangleText" dy=".35em" font-size="14px" style="fill-opacity: 1e-06; font-family: sans-serif;" x="0"></text><path d="M0,0L0,0L0,0L0,0"></path></g><g class="node" transform="translate(127.0569076538086,332.1499938964844)" id="node_6351" style="cursor: crosshair;"><circle class="node" r="4" style="fill: black;"></circle><rect class="node" y="-4px" x="-4px" width="0px" height="0px" style="stroke-width: 2px; stroke: black;"></rect><text x="-13" dy="-.3em" dx=".3em" text-anchor="end" font-size="14px" style="fill-opacity: 1; font-family: sans-serif; font-weight: normal;"></text><text class="triangleText" dy=".35em" font-size="14px" style="fill-opacity: 1e-06; font-family: sans-serif;" x="0"></text><path d="M0,0L0,0L0,0L0,0"></path></g><g class="node" transform="translate(485.5471496582031,29.200000762939453)" id="node_6455" style="cursor: crosshair;"><circle class="node" r="4" style="fill: black;"></circle><rect class="node" y="-4px" x="-4px" width="0px" height="0px" style="stroke-width: 2px; stroke: black;"></rect><text x="13" dy=".3em" dx="-.3em" text-anchor="start" font-size="14px" style="fill-opacity: 1; font-family: sans-serif; font-weight: normal; fill: black;">2_Amanita-kitamagotake_genes_for_18S_rRNA__ITS1__5_8S_rRNA__ITS2__28S_rRNA__partial_and_complete_sequence__Ajav090716</text><text class="triangleText" dy=".35em" font-size="14px" style="fill-opacity: 1e-06; font-family: sans-serif;"></text><path d="M0,0L0,0L0,0L0,0"></path></g><g class="node" transform="translate(20,180.6750030517578)" id="node_9389" style="cursor: crosshair;"><circle class="node" r="4" style="fill: black;"></circle><rect class="node" y="-4px" x="-4px" width="0px" height="0px" style="stroke-width: 2px; stroke: black;"></rect><text x="-13" dy="-.3em" dx=".3em" text-anchor="end" font-size="14px" style="fill-opacity: 1; font-family: sans-serif; font-weight: normal;"></text><text class="triangleText" dy=".35em" font-size="14px" style="fill-opacity: 1e-06; font-family: sans-serif;" x="0"></text><path d="M0,0L0,0L0,0L0,0"></path></g></g></svg>